<svg width="59" height="24" viewBox="0 0 59 24" fill="none" xmlns="http://www.w3.org/2000/svg">
<rect width="59" height="24" rx="4" fill="white"/>
<path d="M14.2392 4.34164C14.4786 3.60459 15.5214 3.60459 15.7608 4.34164L17.0655 8.35704C17.1726 8.68666 17.4798 8.90983 17.8264 8.90983H22.0484C22.8234 8.90983 23.1456 9.90152 22.5186 10.357L19.1029 12.8387C18.8226 13.0424 18.7052 13.4035 18.8123 13.7331L20.117 17.7485C20.3565 18.4856 19.5129 19.0985 18.8859 18.643L15.4702 16.1613C15.1898 15.9576 14.8102 15.9576 14.5298 16.1613L11.1141 18.643C10.4871 19.0985 9.64351 18.4856 9.88299 17.7485L11.1877 13.7331C11.2948 13.4035 11.1774 13.0424 10.8971 12.8387L7.48135 10.357C6.85438 9.90152 7.1766 8.90983 7.95158 8.90983H12.1736C12.5202 8.90983 12.8274 8.68666 12.9345 8.35704L14.2392 4.34164Z" fill="#FFC71E"/>
<path d="M29.544 15.456V14.016L35.064 6.8H37.288L31.848 14.016L30.808 13.696H39.688V15.456H29.544ZM35.688 18V15.456L35.752 13.696V11.44H37.704V18H35.688ZM42.1239 18.112C41.7612 18.112 41.4519 17.9893 41.1959 17.744C40.9399 17.488 40.8119 17.168 40.8119 16.784C40.8119 16.3787 40.9399 16.0587 41.1959 15.824C41.4519 15.5787 41.7612 15.456 42.1239 15.456C42.4865 15.456 42.7959 15.5787 43.0519 15.824C43.3079 16.0587 43.4359 16.3787 43.4359 16.784C43.4359 17.168 43.3079 17.488 43.0519 17.744C42.7959 17.9893 42.4865 18.112 42.1239 18.112ZM48.4941 18.16C47.7048 18.16 46.9315 18.048 46.1741 17.824C45.4275 17.5893 44.7981 17.2693 44.2861 16.864L45.1661 15.248C45.5715 15.5787 46.0621 15.8453 46.6381 16.048C47.2248 16.2507 47.8328 16.352 48.4621 16.352C49.1981 16.352 49.7741 16.1973 50.1901 15.888C50.6168 15.5787 50.8301 15.1627 50.8301 14.64C50.8301 14.288 50.7395 13.9787 50.5581 13.712C50.3875 13.4453 50.0781 13.2427 49.6301 13.104C49.1928 12.9653 48.5901 12.896 47.8221 12.896H45.1181L45.6941 6.8H52.2701V8.544H46.4621L47.5501 7.552L47.1181 12.112L46.0301 11.136H48.2861C49.3955 11.136 50.2861 11.2853 50.9581 11.584C51.6408 11.872 52.1368 12.2773 52.4461 12.8C52.7661 13.312 52.9261 13.8987 52.9261 14.56C52.9261 15.2107 52.7661 15.808 52.4461 16.352C52.1261 16.896 51.6355 17.3333 50.9741 17.664C50.3235 17.9947 49.4968 18.16 48.4941 18.16Z" fill="#2B1B12"/>
</svg>
