<svg width="59" height="24" viewBox="0 0 59 24" fill="none" xmlns="http://www.w3.org/2000/svg">
<rect width="59" height="24" rx="4" fill="white"/>
<path d="M14.2392 4.34164C14.4786 3.60459 15.5214 3.60459 15.7608 4.34164L17.0655 8.35704C17.1726 8.68666 17.4798 8.90983 17.8264 8.90983H22.0484C22.8234 8.90983 23.1456 9.90152 22.5186 10.357L19.1029 12.8387C18.8226 13.0424 18.7052 13.4035 18.8123 13.7331L20.117 17.7485C20.3565 18.4856 19.5129 19.0985 18.8859 18.643L15.4702 16.1613C15.1898 15.9576 14.8102 15.9576 14.5298 16.1613L11.1141 18.643C10.4871 19.0985 9.64351 18.4856 9.88299 17.7485L11.1877 13.7331C11.2948 13.4035 11.1774 13.0424 10.8971 12.8387L7.48135 10.357C6.85438 9.90152 7.1766 8.90983 7.95158 8.90983H12.1736C12.5202 8.90983 12.8274 8.68666 12.9345 8.35704L14.2392 4.34164Z" fill="#FFC71E"/>
<path d="M33.416 18.16C32.6267 18.16 31.8533 18.048 31.096 17.824C30.3493 17.5893 29.72 17.2693 29.208 16.864L30.088 15.248C30.4933 15.5787 30.984 15.8453 31.56 16.048C32.1467 16.2507 32.7547 16.352 33.384 16.352C34.12 16.352 34.696 16.1973 35.112 15.888C35.5387 15.5787 35.752 15.1627 35.752 14.64C35.752 14.288 35.6613 13.9787 35.48 13.712C35.3093 13.4453 35 13.2427 34.552 13.104C34.1147 12.9653 33.512 12.896 32.744 12.896H30.04L30.616 6.8H37.192V8.544H31.384L32.472 7.552L32.04 12.112L30.952 11.136H33.208C34.3173 11.136 35.208 11.2853 35.88 11.584C36.5627 11.872 37.0587 12.2773 37.368 12.8C37.688 13.312 37.848 13.8987 37.848 14.56C37.848 15.2107 37.688 15.808 37.368 16.352C37.048 16.896 36.5573 17.3333 35.896 17.664C35.2453 17.9947 34.4187 18.16 33.416 18.16ZM40.2958 18.112C39.9331 18.112 39.6238 17.9893 39.3678 17.744C39.1118 17.488 38.9838 17.168 38.9838 16.784C38.9838 16.3787 39.1118 16.0587 39.3678 15.824C39.6238 15.5787 39.9331 15.456 40.2958 15.456C40.6584 15.456 40.9678 15.5787 41.2238 15.824C41.4798 16.0587 41.6078 16.3787 41.6078 16.784C41.6078 17.168 41.4798 17.488 41.2238 17.744C40.9678 17.9893 40.6584 18.112 40.2958 18.112ZM47.4385 18.16C46.5532 18.16 45.7532 17.936 45.0385 17.488C44.3345 17.04 43.7798 16.3893 43.3745 15.536C42.9692 14.672 42.7665 13.6267 42.7665 12.4C42.7665 11.1733 42.9692 10.1333 43.3745 9.28C43.7798 8.416 44.3345 7.76 45.0385 7.312C45.7532 6.864 46.5532 6.64 47.4385 6.64C48.3345 6.64 49.1345 6.864 49.8385 7.312C50.5425 7.76 51.0972 8.416 51.5025 9.28C51.9185 10.1333 52.1265 11.1733 52.1265 12.4C52.1265 13.6267 51.9185 14.672 51.5025 15.536C51.0972 16.3893 50.5425 17.04 49.8385 17.488C49.1345 17.936 48.3345 18.16 47.4385 18.16ZM47.4385 16.352C47.9612 16.352 48.4145 16.2133 48.7985 15.936C49.1825 15.648 49.4812 15.2107 49.6945 14.624C49.9185 14.0373 50.0305 13.296 50.0305 12.4C50.0305 11.4933 49.9185 10.752 49.6945 10.176C49.4812 9.58933 49.1825 9.15733 48.7985 8.88C48.4145 8.592 47.9612 8.448 47.4385 8.448C46.9372 8.448 46.4892 8.592 46.0945 8.88C45.7105 9.15733 45.4065 9.58933 45.1825 10.176C44.9692 10.752 44.8625 11.4933 44.8625 12.4C44.8625 13.296 44.9692 14.0373 45.1825 14.624C45.4065 15.2107 45.7105 15.648 46.0945 15.936C46.4892 16.2133 46.9372 16.352 47.4385 16.352Z" fill="#2B1B12"/>
</svg>
